<svg width="136" height="38" viewBox="0 0 136 38" fill="none" xmlns="http://www.w3.org/2000/svg">
<path d="M18.5 38C28.7173 38 37 29.7173 37 19.5C37 9.28273 28.7173 1 18.5 1C8.28273 1 0 9.28273 0 19.5C0 29.7173 8.28273 38 18.5 38Z" fill="#FAC960"/>
<path opacity="0.3" d="M24.2809 17.9309L26.1186 14.9771L18.4027 12.0472L22.4288 7.54969L20.6857 5.82782L12.7211 11.0229L14.3594 12.8311L12.7211 14.9771L18.4582 18.8093L11.2096 24.6601L19.044 31.3071L28.0021 20.2044L24.2809 17.9309Z" fill="white"/>
<path d="M15.072 22.9088C12.234 22.9088 9.93314 25.2096 9.93314 28.0477C9.93314 30.8857 12.234 33.1866 15.072 33.1866C17.9101 33.1866 20.2109 30.8857 20.2109 28.0477C20.2109 25.2096 17.9101 22.9088 15.072 22.9088ZM24.6646 14.6866C22.583 14.6866 20.8961 16.3735 20.8961 18.4551C20.8961 20.5367 22.583 22.2236 24.6646 22.2236C26.7462 22.2236 28.4331 20.5367 28.4331 18.4551C28.4331 16.3735 26.7455 14.6866 24.6646 14.6866ZM14.2197 15.4841C15.5914 15.4841 16.7035 14.3721 16.7035 13.0003C16.7035 11.6286 15.5914 10.5165 14.2197 10.5165C12.8479 10.5165 11.7359 11.6286 11.7359 13.0003C11.7359 14.3721 12.8479 15.4841 14.2197 15.4841ZM22.8132 6.65963C22.8132 5.9813 22.2637 5.43178 21.5854 5.43178C20.9071 5.43178 20.3575 5.9813 20.3575 6.65963C20.3575 7.33796 20.9071 7.88748 21.5854 7.88748C22.2637 7.88748 22.8132 7.33796 22.8132 6.65963Z" fill="white"/>
<path d="M62.0469 15.5156C62.0469 15.099 61.9531 14.7135 61.7656 14.3594C61.5885 13.9948 61.2188 13.6667 60.6562 13.375C60.1042 13.0729 59.2708 12.8125 58.1562 12.5938C57.2188 12.3958 56.3698 12.1615 55.6094 11.8906C54.8594 11.6198 54.2188 11.2917 53.6875 10.9062C53.1667 10.5208 52.7656 10.0677 52.4844 9.54688C52.2031 9.02604 52.0625 8.41667 52.0625 7.71875C52.0625 7.05208 52.2083 6.42188 52.5 5.82812C52.8021 5.23438 53.224 4.70833 53.7656 4.25C54.3177 3.79167 54.9792 3.43229 55.75 3.17188C56.5208 2.91146 57.3802 2.78125 58.3281 2.78125C59.6823 2.78125 60.8385 3.02083 61.7969 3.5C62.7552 3.97917 63.4896 4.61979 64 5.42188C64.5104 6.21354 64.7656 7.09375 64.7656 8.0625H61.875C61.875 7.59375 61.7344 7.14062 61.4531 6.70312C61.1823 6.25521 60.7812 5.88542 60.25 5.59375C59.7292 5.30208 59.0885 5.15625 58.3281 5.15625C57.526 5.15625 56.875 5.28125 56.375 5.53125C55.8854 5.77083 55.526 6.07812 55.2969 6.45312C55.0781 6.82812 54.9688 7.22396 54.9688 7.64062C54.9688 7.95312 55.0208 8.23438 55.125 8.48438C55.2396 8.72396 55.4375 8.94792 55.7188 9.15625C56 9.35417 56.3958 9.54167 56.9062 9.71875C57.4167 9.89583 58.0677 10.0729 58.8594 10.25C60.2448 10.5625 61.3854 10.9375 62.2812 11.375C63.1771 11.8125 63.8438 12.349 64.2812 12.9844C64.7188 13.6198 64.9375 14.3906 64.9375 15.2969C64.9375 16.0365 64.7812 16.7135 64.4688 17.3281C64.1667 17.9427 63.724 18.474 63.1406 18.9219C62.5677 19.3594 61.8802 19.7031 61.0781 19.9531C60.2865 20.1927 59.3958 20.3125 58.4062 20.3125C56.9167 20.3125 55.6562 20.0469 54.625 19.5156C53.5938 18.9844 52.8125 18.2969 52.2812 17.4531C51.75 16.6094 51.4844 15.7188 51.4844 14.7812H54.3906C54.4323 15.5729 54.6615 16.2031 55.0781 16.6719C55.4948 17.1302 56.0052 17.4583 56.6094 17.6562C57.2135 17.8438 57.8125 17.9375 58.4062 17.9375C59.1979 17.9375 59.8594 17.8333 60.3906 17.625C60.9323 17.4167 61.3438 17.1302 61.625 16.7656C61.9062 16.401 62.0469 15.9844 62.0469 15.5156ZM71.625 6.34375V26.5H68.7188V3.09375H71.375L71.625 6.34375ZM83.0156 11.4062V11.7344C83.0156 12.9635 82.8698 14.1042 82.5781 15.1562C82.2865 16.1979 81.8594 17.1042 81.2969 17.875C80.7448 18.6458 80.0625 19.2448 79.25 19.6719C78.4375 20.099 77.5052 20.3125 76.4531 20.3125C75.3802 20.3125 74.4323 20.1354 73.6094 19.7812C72.7865 19.4271 72.0885 18.9115 71.5156 18.2344C70.9427 17.5573 70.4844 16.7448 70.1406 15.7969C69.8073 14.849 69.5781 13.7812 69.4531 12.5938V10.8438C69.5781 9.59375 69.8125 8.47396 70.1562 7.48438C70.5 6.49479 70.9531 5.65104 71.5156 4.95312C72.0885 4.24479 72.7812 3.70833 73.5938 3.34375C74.4062 2.96875 75.3438 2.78125 76.4062 2.78125C77.4688 2.78125 78.4115 2.98958 79.2344 3.40625C80.0573 3.8125 80.75 4.39583 81.3125 5.15625C81.875 5.91667 82.2969 6.82812 82.5781 7.89062C82.8698 8.94271 83.0156 10.1146 83.0156 11.4062ZM80.1094 11.7344V11.4062C80.1094 10.5625 80.0208 9.77083 79.8438 9.03125C79.6667 8.28125 79.3906 7.625 79.0156 7.0625C78.651 6.48958 78.1823 6.04167 77.6094 5.71875C77.0365 5.38542 76.3542 5.21875 75.5625 5.21875C74.8333 5.21875 74.1979 5.34375 73.6562 5.59375C73.125 5.84375 72.6719 6.18229 72.2969 6.60938C71.9219 7.02604 71.6146 7.50521 71.375 8.04688C71.1458 8.57812 70.974 9.13021 70.8594 9.70312V13.75C71.0677 14.4792 71.3594 15.1667 71.7344 15.8125C72.1094 16.4479 72.6094 16.9635 73.2344 17.3594C73.8594 17.7448 74.6458 17.9375 75.5938 17.9375C76.375 17.9375 77.0469 17.776 77.6094 17.4531C78.1823 17.1198 78.651 16.6667 79.0156 16.0938C79.3906 15.5208 79.6667 14.8646 79.8438 14.125C80.0208 13.375 80.1094 12.5781 80.1094 11.7344ZM96.6719 17.1094V8.40625C96.6719 7.73958 96.5365 7.16146 96.2656 6.67188C96.0052 6.17188 95.6094 5.78646 95.0781 5.51562C94.5469 5.24479 93.8906 5.10938 93.1094 5.10938C92.3802 5.10938 91.7396 5.23438 91.1875 5.48438C90.6458 5.73438 90.2188 6.0625 89.9062 6.46875C89.6042 6.875 89.4531 7.3125 89.4531 7.78125H86.5625C86.5625 7.17708 86.7188 6.57812 87.0312 5.98438C87.3438 5.39062 87.7917 4.85417 88.375 4.375C88.9688 3.88542 89.6771 3.5 90.5 3.21875C91.3333 2.92708 92.2604 2.78125 93.2812 2.78125C94.5104 2.78125 95.5938 2.98958 96.5312 3.40625C97.4792 3.82292 98.2188 4.45312 98.75 5.29688C99.2917 6.13021 99.5625 7.17708 99.5625 8.4375V16.3125C99.5625 16.875 99.6094 17.474 99.7031 18.1094C99.8073 18.7448 99.9583 19.2917 100.156 19.75V20H97.1406C96.9948 19.6667 96.8802 19.224 96.7969 18.6719C96.7135 18.1094 96.6719 17.5885 96.6719 17.1094ZM97.1719 9.75L97.2031 11.7812H94.2812C93.4583 11.7812 92.724 11.849 92.0781 11.9844C91.4323 12.1094 90.8906 12.3021 90.4531 12.5625C90.0156 12.8229 89.6823 13.151 89.4531 13.5469C89.224 13.9323 89.1094 14.3854 89.1094 14.9062C89.1094 15.4375 89.2292 15.9219 89.4688 16.3594C89.7083 16.7969 90.0677 17.1458 90.5469 17.4062C91.0365 17.6562 91.6354 17.7812 92.3438 17.7812C93.2292 17.7812 94.0104 17.5938 94.6875 17.2188C95.3646 16.8438 95.901 16.3854 96.2969 15.8438C96.7031 15.3021 96.9219 14.776 96.9531 14.2656L98.1875 15.6562C98.1146 16.0938 97.9167 16.5781 97.5938 17.1094C97.2708 17.6406 96.8385 18.151 96.2969 18.6406C95.7656 19.1198 95.1302 19.5208 94.3906 19.8438C93.6615 20.1562 92.8385 20.3125 91.9219 20.3125C90.776 20.3125 89.7708 20.0885 88.9062 19.6406C88.0521 19.1927 87.3854 18.5938 86.9062 17.8438C86.4375 17.0833 86.2031 16.2344 86.2031 15.2969C86.2031 14.3906 86.3802 13.5938 86.7344 12.9062C87.0885 12.2083 87.599 11.6302 88.2656 11.1719C88.9323 10.7031 89.7344 10.349 90.6719 10.1094C91.6094 9.86979 92.6562 9.75 93.8125 9.75H97.1719ZM110.875 17.9375C111.562 17.9375 112.198 17.7969 112.781 17.5156C113.365 17.2344 113.844 16.849 114.219 16.3594C114.594 15.8594 114.807 15.2917 114.859 14.6562H117.609C117.557 15.6562 117.219 16.5885 116.594 17.4531C115.979 18.3073 115.172 19 114.172 19.5312C113.172 20.0521 112.073 20.3125 110.875 20.3125C109.604 20.3125 108.495 20.0885 107.547 19.6406C106.609 19.1927 105.828 18.5781 105.203 17.7969C104.589 17.0156 104.125 16.1198 103.812 15.1094C103.51 14.0885 103.359 13.0104 103.359 11.875V11.2188C103.359 10.0833 103.51 9.01042 103.812 8C104.125 6.97917 104.589 6.07812 105.203 5.29688C105.828 4.51562 106.609 3.90104 107.547 3.45312C108.495 3.00521 109.604 2.78125 110.875 2.78125C112.198 2.78125 113.354 3.05208 114.344 3.59375C115.333 4.125 116.109 4.85417 116.672 5.78125C117.245 6.69792 117.557 7.73958 117.609 8.90625H114.859C114.807 8.20833 114.609 7.57812 114.266 7.01562C113.932 6.45312 113.474 6.00521 112.891 5.67188C112.318 5.32812 111.646 5.15625 110.875 5.15625C109.99 5.15625 109.245 5.33333 108.641 5.6875C108.047 6.03125 107.573 6.5 107.219 7.09375C106.875 7.67708 106.625 8.32812 106.469 9.04688C106.323 9.75521 106.25 10.4792 106.25 11.2188V11.875C106.25 12.6146 106.323 13.3438 106.469 14.0625C106.615 14.7812 106.859 15.4323 107.203 16.0156C107.557 16.599 108.031 17.0677 108.625 17.4219C109.229 17.7656 109.979 17.9375 110.875 17.9375ZM127.875 20.3125C126.698 20.3125 125.63 20.1146 124.672 19.7188C123.724 19.3125 122.906 18.7448 122.219 18.0156C121.542 17.2865 121.021 16.4219 120.656 15.4219C120.292 14.4219 120.109 13.3281 120.109 12.1406V11.4844C120.109 10.1094 120.312 8.88542 120.719 7.8125C121.125 6.72917 121.677 5.8125 122.375 5.0625C123.073 4.3125 123.865 3.74479 124.75 3.35938C125.635 2.97396 126.552 2.78125 127.5 2.78125C128.708 2.78125 129.75 2.98958 130.625 3.40625C131.51 3.82292 132.234 4.40625 132.797 5.15625C133.359 5.89583 133.776 6.77083 134.047 7.78125C134.318 8.78125 134.453 9.875 134.453 11.0625V12.3594H121.828V10H131.562V9.78125C131.521 9.03125 131.365 8.30208 131.094 7.59375C130.833 6.88542 130.417 6.30208 129.844 5.84375C129.271 5.38542 128.49 5.15625 127.5 5.15625C126.844 5.15625 126.24 5.29688 125.688 5.57812C125.135 5.84896 124.661 6.25521 124.266 6.79688C123.87 7.33854 123.562 8 123.344 8.78125C123.125 9.5625 123.016 10.4635 123.016 11.4844V12.1406C123.016 12.9427 123.125 13.6979 123.344 14.4062C123.573 15.1042 123.901 15.7188 124.328 16.25C124.766 16.7812 125.292 17.1979 125.906 17.5C126.531 17.8021 127.24 17.9531 128.031 17.9531C129.052 17.9531 129.917 17.7448 130.625 17.3281C131.333 16.9115 131.953 16.3542 132.484 15.6562L134.234 17.0469C133.87 17.599 133.406 18.125 132.844 18.625C132.281 19.125 131.589 19.5312 130.766 19.8438C129.953 20.1562 128.99 20.3125 127.875 20.3125Z" fill="white"/>
</svg>
